<svg xmlns="http://www.w3.org/2000/svg" preserveAspectRatio="xMidYMid" width="70" height="68" viewBox="0 0 70 68"><defs><style>.cls-1{fill:#fff;fill-rule:evenodd}</style></defs><path d="M69.873 20.356l-10.46 30.823a2.182 2.182 0 0 1-2.055 1.441H27.682a2.181 2.181 0 0 1-2.102-1.589L13.431 6.483c-.621-2.138-1.529-2.138-1.827-2.138H2.187A2.18 2.18 0 0 1 .004 2.167 2.18 2.18 0 0 1 2.187-.011h9.417c1.35 0 4.641.516 6.026 5.301l3.532 12.151h5.64L40.655 5.458a4.405 4.405 0 0 1 6.218 0l14.092 11.983h6.853c.711 0 1.376.345 1.786.926.408.578.509 1.321.269 1.989zM43.764 8.56l-10.447 8.881h20.892L43.764 8.56zM22.388 21.798l6.949 26.466h26.484l8.893-26.466H22.388zm9.317 35.235a5.49 5.49 0 0 1 5.496 5.484A5.49 5.49 0 0 1 31.705 68c-3.035 0-5.496-2.455-5.496-5.483a5.49 5.49 0 0 1 5.496-5.484zm19.786 0a5.49 5.49 0 0 1 5.496 5.484c0 3.028-2.461 5.483-5.496 5.483-3.035 0-5.496-2.455-5.496-5.483a5.49 5.49 0 0 1 5.496-5.484z" class="cls-1"/></svg>