<svg xmlns="http://www.w3.org/2000/svg" preserveAspectRatio="xMidYMid" viewBox="0 0 92.09 92.47"><defs><style>.cls-1{fill:#fff;fill-rule:evenodd}</style></defs><path d="M86.332 92.47H5.761c-3.178 0-5.755-2.589-5.755-5.782V14.431c0-3.193 2.577-5.781 5.755-5.781h23V2.89A2.882 2.882 0 0 1 31.639 0a2.882 2.882 0 0 1 2.877 2.89v5.76h23.02V2.89A2.883 2.883 0 0 1 60.414 0a2.882 2.882 0 0 1 2.877 2.89v5.76h23.041c3.178 0 5.755 2.588 5.755 5.781v72.257c0 3.193-2.577 5.782-5.755 5.782zm0-78.039H63.291v2.911a2.883 2.883 0 0 1-2.877 2.891 2.884 2.884 0 0 1-2.878-2.891v-2.911h-23.02v2.911a2.883 2.883 0 0 1-2.877 2.891 2.883 2.883 0 0 1-2.878-2.891v-2.911h-23v72.257h80.571V14.431zM20.148 34.663h5.755a2.884 2.884 0 0 1 2.878 2.89v5.781a2.884 2.884 0 0 1-2.878 2.89h-5.755a2.884 2.884 0 0 1-2.877-2.89v-5.781a2.884 2.884 0 0 1 2.877-2.89zm0 23.123h5.755a2.884 2.884 0 0 1 2.878 2.89v5.78a2.884 2.884 0 0 1-2.878 2.891h-5.755a2.884 2.884 0 0 1-2.877-2.891v-5.78a2.884 2.884 0 0 1 2.877-2.89zm23.021-23.123h5.755a2.884 2.884 0 0 1 2.877 2.89v5.781a2.884 2.884 0 0 1-2.877 2.89h-5.755a2.884 2.884 0 0 1-2.878-2.89v-5.781a2.884 2.884 0 0 1 2.878-2.89zm0 23.123h5.755a2.884 2.884 0 0 1 2.877 2.89v5.78a2.884 2.884 0 0 1-2.877 2.891h-5.755a2.884 2.884 0 0 1-2.878-2.891v-5.78a2.884 2.884 0 0 1 2.878-2.89zm23.02-23.123h5.755a2.884 2.884 0 0 1 2.877 2.89v5.781a2.884 2.884 0 0 1-2.877 2.89h-5.755a2.884 2.884 0 0 1-2.878-2.89v-5.781a2.884 2.884 0 0 1 2.878-2.89zm0 23.123h5.755a2.884 2.884 0 0 1 2.877 2.89v5.78a2.884 2.884 0 0 1-2.877 2.891h-5.755a2.885 2.885 0 0 1-2.878-2.891v-5.78a2.884 2.884 0 0 1 2.878-2.89z" class="cls-1"/></svg>