<svg id="Layer_1" xmlns="http://www.w3.org/2000/svg" viewBox="0 0 80.2 55.3"><style>.st0{fill:#424242}</style><path class="st0" d="M78.4 20.8L67.1 6.6c-1.2-1.6-3.5-2.8-5.5-2.8h-16V2.1c0-1.2-1-2.2-2.2-2.2H2.1C.9-.1-.1.9-.1 2.1V43c0 1.2 1 2.2 2.2 2.2h6.7c0 5.5 4.5 10 10 10s10-4.5 10-10h21c0 5.5 4.5 10 10 10s10-4.5 10-10h6.6c1.7 0 3.7-.8 3.7-4.5V25.5c-.1-2.4-1.6-4.4-1.7-4.7zm-59.6 30c-3.1 0-5.6-2.5-5.6-5.6 0-3.1 2.5-5.6 5.6-5.6 3.1 0 5.6 2.5 5.6 5.6 0 3.1-2.5 5.6-5.6 5.6zm22.4-10.1v.2H27.7c-1.6-3.3-5-5.6-9-5.6-3.9 0-7.3 2.3-9 5.6H4.3V4.3h36.9v36.4zm18.6 10.1c-3.1 0-5.6-2.5-5.6-5.6 0-3.1 2.5-5.6 5.6-5.6 3.1 0 5.6 2.5 5.6 5.6 0 3.1-2.5 5.6-5.6 5.6zm15.8-10.1v.1h-6.9c-1.6-3.3-5-5.6-9-5.6-3.9 0-7.3 2.3-9 5.6h-5.3V8.3c0-.1.1-.1.1-.1h15.9c.6 0 1.6.5 2 1.1l11.3 14.4c.2.3.7 1.2.7 1.9v15.1z"/><path class="st0" d="M61.8 13.6c-.4-.5-.9-.7-1.5-.7h-7.6c-1.1 0-1.9.9-1.9 1.9v8.5c0 1.1.9 1.9 1.9 1.9h14.2c.7 0 1.4-.4 1.7-1.1.3-.7.2-1.4-.2-2l-6.6-8.5zm-7.2 7.7v-4.6h4.7l3.6 4.6h-8.3zM10.1 9.9h23.6v4.4H10.1zm4.9 8.6h18.7v4.4H15zm5.4 8.5h13.3v4.4H20.4z"/></svg>