<svg xmlns="http://www.w3.org/2000/svg" preserveAspectRatio="xMidYMid" viewBox="0 0 91.97 89.41"><defs><style>.cls-1{fill:#fff;fill-rule:evenodd}</style></defs><path d="M90.946 21.18L76.08 33.724l12.671 10.04a2.888 2.888 0 0 1 1.093 2.384 2.892 2.892 0 0 1-1.279 2.29l-11.154 7.468c.034.177.055.358.055.545v13.596a2.898 2.898 0 0 1-1.369 2.462L47.482 88.987a2.878 2.878 0 0 1-1.509.429 2.851 2.851 0 0 1-1.506-.427L15.514 72.511a2.898 2.898 0 0 1-1.371-2.464V58.454c0-.848.37-1.602.948-2.131L3.313 48.438a2.9 2.9 0 0 1-1.279-2.293 2.885 2.885 0 0 1 1.099-2.384L15.86 33.717 1.003 21.18a2.89 2.89 0 0 1-1.017-2.417 2.897 2.897 0 0 1 1.346-2.249L26.977.439a2.868 2.868 0 0 1 3.333.206l15.663 12.73L61.639.645a2.866 2.866 0 0 1 3.333-.206l25.645 16.075a2.897 2.897 0 0 1 1.346 2.249 2.89 2.89 0 0 1-1.017 2.417zm-8.872 24.655l-10.743-8.51-20.322 12.792 11.459 8.846 19.606-13.128zM71.711 59.723l-7.765 5.198a2.865 2.865 0 0 1-3.349-.113l-11.929-9.21v25.994l23.043-13.16v-8.709zM19.898 68.43l23.015 12.979V55.865l-11.637 8.947a2.875 2.875 0 0 1-3.344.109l-8.034-5.379v8.888zM9.81 45.841l19.603 13.125 11.516-8.855-20.32-12.789L9.81 45.841zM28.284 6.435L7.739 19.314l12.904 10.89 20.443-13.365L28.284 6.435zm-2.515 27.314l20.204 12.716 20.205-12.716-20.205-13.207-20.204 13.207zM63.665 6.435L50.86 16.839l20.443 13.365 12.907-10.89L63.665 6.435z" class="cls-1"/></svg>