<svg xmlns="http://www.w3.org/2000/svg" preserveAspectRatio="xMidYMid" width="76.781" height="76.188" viewBox="0 0 76.781 76.188"><defs><style>.cls-1{fill:#fff;fill-rule:evenodd}</style></defs><path d="M76.795 60.271c0 2.522-1.511 4.686-3.675 5.698-.225.237-.5.436-.823.569l-24.72 9.612-4.302.016c-.02.001-.038.006-.059.006h-7.201c-1.325 0-2.4-1.064-2.4-2.377v-2.378c0-1.313 1.075-2.376 2.4-2.376h7.201c1.326 0 2.401 1.063 2.401 2.376v.389l15.411-5.993c-2.003-1.066-3.384-3.137-3.384-5.542V44.397c0-3.482 2.86-6.314 6.376-6.314h6.397c.497 0 .976.069 1.441.177-.082-1.803-.186-3.597-.266-4.304C69.683 17.034 55.818 4.749 38.62 4.749c-17.911 0-32.461 13.713-33.448 31.898-.01.185-.042.794-.077 1.566.416-.085.847-.13 1.289-.13h6.472c3.516 0 6.378 2.832 6.378 6.314v15.948c0 3.483-2.862 6.315-6.378 6.315H6.384c-3.516 0-6.376-2.832-6.376-6.315V44.397c0-.469.06-.922.158-1.362l.006-1.064c.012-1.913.18-5.126.204-5.578C1.504 15.644 18.116-.005 38.62-.005c19.685 0 35.559 14.06 37.744 33.433.19 1.687.438 7.589.431 9.154 0 .239-.048.465-.115.683.068.369.115.744.115 1.132v15.874zm-71.986.074c0 .861.705 1.56 1.575 1.56h6.472a1.57 1.57 0 0 0 1.577-1.56V44.397c0-.862-.707-1.56-1.577-1.56H6.384c-.87 0-1.575.698-1.575 1.56v15.948zm67.186-15.948a1.57 1.57 0 0 0-1.578-1.56H64.02c-.87 0-1.575.698-1.575 1.56v15.874c0 .861.705 1.56 1.575 1.56h6.397a1.57 1.57 0 0 0 1.578-1.56V44.397z" class="cls-1"/></svg>