<svg xmlns="http://www.w3.org/2000/svg" preserveAspectRatio="xMidYMid" width="56.063" height="37" viewBox="0 0 56.063 37"><defs><style>.cls-1{fill:#010101;fill-rule:evenodd}</style></defs><path d="M56.031 31.112c0 2.787-1.475 5.886-4.375 5.886h-45.5c-2.899 0-6.125-3.099-6.125-5.886V4.203c0-.136.041-.252.056-.381-.094-.486.008-1.002.371-1.404.065-.072.151-.108.224-.166C1.766.761 4.041-.002 6.156-.002h45.5c2.396 0 3.803.983 4.225 2.892.117.274.157.562.117.85.01.155.033.298.033.463v26.909zM6.156 33.634h45.5c.965 0 .875-1.594.875-2.522V7.018L29.177 24.972a1.784 1.784 0 0 1-1.146.411c-.409 0-.817-.136-1.146-.411L3.531 7.017v24.095c0 .928 1.66 2.522 2.625 2.522zM50.781 3.362H6.156c-.484 0-1.142-.021-1.679.074l23.554 18.04L51.68 3.362h-.899z" class="cls-1"/></svg>