<svg xmlns="http://www.w3.org/2000/svg" preserveAspectRatio="xMidYMid" width="47" height="43" viewBox="0 0 47 43"><defs><style>.cls-1{fill:#f79300;fill-rule:evenodd}</style></defs><path d="M13.189 2.999c1.437 0 4.035.698 8.249 4.912L23.528 10l2.058-2.122c2.926-3.018 6.039-4.894 8.125-4.894 2.813 0 5.03.977 7.192 3.168a10.928 10.928 0 0 1 3.16 7.726 10.947 10.947 0 0 1-3.18 7.752c-.167.173-9.023 9.874-16.443 18.004-.349.338-.75.388-.961.388-.209 0-.605-.049-.953-.376C20.719 37.604 7.614 22.809 6.09 21.263a10.937 10.937 0 0 1-3.162-7.732 10.93 10.93 0 0 1 3.163-7.728c1.984-2.012 4.305-2.804 7.098-2.804m0-2.977c-3.506 0-6.597 1.065-9.17 3.675-5.363 5.431-5.363 14.239 0 19.673 1.531 1.554 16.393 18.34 16.393 18.34a4.291 4.291 0 0 0 6.132 0S42.8 23.896 42.973 23.717c5.363-5.435 5.363-14.242 0-19.673C40.312 1.346 37.337.008 33.711.008c-3.464 0-7.329 2.805-10.215 5.781C20.518 2.813 16.773.022 13.189.022z" class="cls-1"/></svg>