<svg xmlns="http://www.w3.org/2000/svg" preserveAspectRatio="xMidYMid" width="78.656" height="78.844" viewBox="0 0 78.656 78.844"><defs><style>.cls-1{fill:#fff;fill-rule:evenodd}</style></defs><path d="M39.32 78.843c-21.724 0-39.335-17.648-39.335-39.42C-.015 17.653 17.596.005 39.32.005c21.726 0 39.336 17.648 39.336 39.418 0 21.772-17.61 39.42-39.336 39.42zm0-73.911c-18.978 0-34.418 15.472-34.418 34.491s15.44 34.57 34.418 34.57c18.979 0 34.419-15.551 34.419-34.57S58.299 4.932 39.32 4.932zm4.917 56.665h-9.834a2.461 2.461 0 0 1-2.458-2.464 2.461 2.461 0 0 1 2.458-2.464h2.459V36.96h-2.459a2.461 2.461 0 0 1-2.458-2.463 2.461 2.461 0 0 1 2.458-2.464h4.917a2.461 2.461 0 0 1 2.459 2.464c0 .026-.007.051-.008.077.001.026.008.05.008.076v22.019h2.458a2.461 2.461 0 0 1 2.459 2.464 2.461 2.461 0 0 1-2.459 2.464zM39.32 27.105a4.922 4.922 0 0 1-4.917-4.927 4.922 4.922 0 0 1 4.917-4.927 4.921 4.921 0 0 1 4.917 4.927 4.922 4.922 0 0 1-4.917 4.927z" class="cls-1"/></svg>