<svg xmlns="http://www.w3.org/2000/svg" preserveAspectRatio="xMidYMid" viewBox="0 0 42.19 26.4"><defs><style>.cls-1{fill:#000;fill-rule:evenodd}</style></defs><path d="M40.865 14.519H13.191a1.32 1.32 0 0 1-1.318-1.321c0-.729.59-1.321 1.318-1.321h27.674a1.32 1.32 0 0 1 1.317 1.321c0 .73-.59 1.321-1.317 1.321zm0-10.567H13.191a1.32 1.32 0 0 1-1.318-1.321c0-.729.59-1.32 1.318-1.32h27.674c.727 0 1.317.591 1.317 1.32 0 .73-.59 1.321-1.317 1.321zM3.966 26.405H1.331a1.319 1.319 0 0 1-1.318-1.32v-2.642c0-.729.59-1.321 1.318-1.321h2.635a1.32 1.32 0 0 1 1.318 1.321v2.642c0 .729-.59 1.32-1.318 1.32zm0-10.565H1.331a1.32 1.32 0 0 1-1.318-1.321v-2.642c0-.729.59-1.32 1.318-1.32h2.635c.728 0 1.318.591 1.318 1.32v2.642a1.32 1.32 0 0 1-1.318 1.321zm0-10.567H1.331A1.32 1.32 0 0 1 .013 3.952V1.311c0-.73.59-1.321 1.318-1.321h2.635a1.32 1.32 0 0 1 1.318 1.321v2.641c0 .73-.59 1.321-1.318 1.321zm9.225 17.17h27.674c.727 0 1.317.591 1.317 1.321a1.32 1.32 0 0 1-1.317 1.321H13.191a1.32 1.32 0 0 1-1.318-1.321c0-.73.59-1.321 1.318-1.321z" class="cls-1"/></svg>