<svg xmlns="http://www.w3.org/2000/svg" preserveAspectRatio="xMidYMid" width="38" height="47" viewBox="0 0 38 47"><defs><style>.cls-1{fill:#a9a5a2;fill-rule:evenodd}</style></defs><path d="M32.153 47H5.846c-3.225 0-5.847-2.635-5.847-5.875V23.5c0-3.24 2.622-5.875 5.847-5.875h1.461v-5.606C7.307 5.391 12.024 0 18.945 0c6.894 0 11.747 5.279 11.747 12.019v5.606h1.461c3.224 0 5.846 2.635 5.846 5.875v17.625c0 3.24-2.622 5.875-5.846 5.875zm-4.384-34.981c0-5.093-3.569-9.082-8.824-9.082-5.309 0-8.715 4.075-8.715 9.082v5.606h17.539v-5.606zM35.076 23.5a2.934 2.934 0 0 0-2.923-2.938H5.846A2.935 2.935 0 0 0 2.922 23.5v17.625a2.934 2.934 0 0 0 2.924 2.937h26.307a2.933 2.933 0 0 0 2.923-2.937V23.5zm-14.615 8.405v4.813c0 .812-.654 1.469-1.462 1.469a1.465 1.465 0 0 1-1.461-1.469v-4.813a2.93 2.93 0 0 1 1.461-5.468 2.93 2.93 0 0 1 2.923 2.938 2.928 2.928 0 0 1-1.461 2.53z" class="cls-1"/></svg>