<svg xmlns="http://www.w3.org/2000/svg" preserveAspectRatio="xMidYMid" viewBox="0 0 43.13 43.44"><defs><style>.cls-1{fill:#000;fill-rule:evenodd}</style></defs><path d="M21.558 2.725c4.577 0 9.43 3.882 9.43 6.781v6.784c0 2.61-1.077 7.607-3.969 9.899a2.727 2.727 0 0 0-1.01 2.453 2.712 2.712 0 0 0 1.552 2.147l11.73 5.602c.091.043 1.124.218 1.124 1.67l.001 2.65-37.716.001v-2.755c0-1.079.805-1.418 1.126-1.567l11.836-5.625a2.714 2.714 0 0 0 1.548-2.135 2.721 2.721 0 0 0-.988-2.449c-2.8-2.264-4.104-7.241-4.104-9.891V9.506c0-2.836 4.903-6.781 9.44-6.781m0-2.716c-5.952 0-12.136 5.004-12.136 9.497v6.784c0 2.964 1.344 8.961 5.113 12.009L2.698 33.925S.005 35.133.005 36.638v4.074c0 1.5 1.206 2.713 2.693 2.713h37.718a2.702 2.702 0 0 0 2.694-2.713v-4.074c0-1.595-2.694-2.713-2.694-2.713l-11.73-5.603c3.734-2.96 4.998-8.774 4.998-12.032V9.506c0-4.493-6.176-9.497-12.126-9.497z" class="cls-1"/></svg>