<svg xmlns="http://www.w3.org/2000/svg" preserveAspectRatio="xMidYMid" width="35.875" height="47.28" viewBox="0 0 35.875 47.28"><defs><style>.cls-1{fill:#fff;fill-rule:evenodd}</style></defs><path d="M20.921 46.112c-.027.029-1.066 1.178-2.355 1.178h-.114c-1.29 0-2.336-1.149-2.361-1.178C9.616 38.752-.01 28.28-.01 18.04-.01 8.262 8.296.005 18.102.005c11.291 0 17.769 8.257 17.769 18.035 0 9.784-8.874 21.169-14.95 28.072zm-2.819-43.15C9.905 2.962 2.98 9.867 2.98 18.04c0 8.709 8.407 18.241 14.546 25.202l.783.888c.054.052.13.111.198.158a1.59 1.59 0 0 0 .196-.158c9.408-10.699 14.178-19.477 14.178-26.09 0-7.506-4.57-15.078-14.779-15.078zm-.118 23.724c-4.954 0-8.97-3.97-8.97-8.865 0-4.897 4.016-8.866 8.97-8.866 4.954 0 8.97 3.969 8.97 8.866 0 4.895-4.016 8.865-8.97 8.865zm-.069-14.841c-3.297 0-5.98 2.651-5.98 5.91 0 3.26 2.751 5.975 6.049 5.975 3.298 0 5.911-2.715 5.911-5.975 0-3.259-2.682-5.91-5.98-5.91z" class="cls-1"/></svg>