<svg xmlns="http://www.w3.org/2000/svg" preserveAspectRatio="xMidYMid" viewBox="0 0 44.03 44.34"><defs><style>.cls-1{fill:#000;fill-rule:evenodd}</style></defs><path d="M41.95 10.639c-1.356 1.411-18.102 18.024-18.97 18.887-.135.133-.3.233-.481.287-1.375.413-9.731 3.136-9.815 3.165a1.142 1.142 0 0 1-1.165-.285 1.18 1.18 0 0 1-.292-1.179c.024-.081 2.498-8.24 2.991-10.078.053-.199.157-.378.3-.525 0 0 18.219-18.332 18.862-18.972.454-.455 2.12-1.943 4.406-1.943 1.461 0 2.83.607 4.07 1.805 1.407 1.361 2.139 2.819 2.164 4.333.028 1.534-.669 3.049-2.07 4.505zm-1.996-6.838c-.721-.696-1.431-1.035-2.168-1.035-1.297 0-2.351 1.02-2.466 1.136-.594.589-16.202 16.295-18.563 18.67a533.274 533.274 0 0 1-2.019 6.827 799.134 799.134 0 0 1 6.592-2.122l.845-.84C33.222 15.471 39.211 9.508 39.976 8.713c.873-.91 1.309-1.761 1.296-2.53-.012-.748-.456-1.549-1.318-2.382zM2.735 6.945v34.624h31.61V23.931l2.749-2.645v20.283c0 1.529-1.231 2.77-2.749 2.77H2.735c-1.518 0-2.749-1.241-2.749-2.77V6.945a2.76 2.76 0 0 1 2.749-2.769h22.017l.072.072-2.779 2.697H2.735z" class="cls-1"/></svg>