<svg xmlns="http://www.w3.org/2000/svg" preserveAspectRatio="xMidYMid" viewBox="0 0 42.16 42.47"><defs><style>.cls-1{fill:#f79300;fill-rule:evenodd}</style></defs><path d="M39.869 37.525l-17.404 4.746c-.564.155-1.177.188-1.593.188-.605 0-1.189-.069-1.643-.197l-16.956-4.73c-1.274-.358-2.276-1.628-2.276-2.958V2.346C-.003.778 1.463-.321 2.976.098l16.957 4.731c.441.125 1.401.126 1.843.007L39.18.089a2.333 2.333 0 0 1 2.973 2.257v32.228c0 1.335-1.006 2.603-2.284 2.951zM2.63 2.765v31.809c0 .134.178.368.305.403l16.824 4.682V7.485c-.184-.029-.373-.057-.53-.101L2.63 2.765zm36.89-.016L22.465 7.394c-.024.006-.049.006-.074.013v32.14l16.789-4.579c.126-.035.34-.262.34-.394V2.749zm-3.526 25.692l-9.213 2.611a1.318 1.318 0 0 1-1.624-.918 1.327 1.327 0 0 1 .911-1.635l9.214-2.611a1.32 1.32 0 0 1 1.623.918 1.328 1.328 0 0 1-.911 1.635zm0-7.952l-9.213 2.61a1.317 1.317 0 0 1-1.624-.917 1.327 1.327 0 0 1 .911-1.635l9.214-2.611a1.32 1.32 0 0 1 1.623.918 1.328 1.328 0 0 1-.911 1.635zm0-7.953l-9.213 2.611a1.317 1.317 0 0 1-1.624-.918 1.327 1.327 0 0 1 .911-1.634l9.214-2.611a1.32 1.32 0 0 1 1.623.918 1.326 1.326 0 0 1-.911 1.634zM15.891 31.101a1.33 1.33 0 0 1-.357-.049l-9.213-2.611a1.328 1.328 0 0 1-.912-1.635 1.321 1.321 0 0 1 1.624-.918l9.213 2.611a1.328 1.328 0 0 1-.355 2.602zm0-7.953c-.118 0-.239-.015-.357-.049l-9.213-2.61a1.328 1.328 0 0 1-.912-1.635 1.321 1.321 0 0 1 1.624-.918l9.213 2.611c.701.199 1.108.931.912 1.635a1.318 1.318 0 0 1-1.267.966zm0-7.952c-.118 0-.239-.015-.357-.049l-9.213-2.611a1.326 1.326 0 0 1-.912-1.634 1.321 1.321 0 0 1 1.624-.918l9.213 2.611a1.327 1.327 0 0 1-.355 2.601z" class="cls-1"/></svg>