<svg id="Layer_1" xmlns="http://www.w3.org/2000/svg" viewBox="0 0 94 62"><style>.st0{fill:#010101}</style><path class="st0" d="M82 62H12C5.4 62 0 56.6 0 50V12C0 5.4 5.4 0 12 0h70c6.6 0 12 5.4 12 12v38c0 6.6-5.4 12-12 12zM12 4c-4.4 0-8 3.6-8 8v38c0 4.4 3.6 8 8 8h70c4.4 0 8-3.6 8-8V12c0-4.4-3.6-8-8-8H12z"/><path class="st0" d="M33.6 23c-3.8 0-5.2 2.6-5.2 2.6h-.1V25c0-.9-.5-1.6-2-1.6h-3.6v3.5H24c.4 0 .7.2.7.7v18.6h4v-6.8c0-.8-.1-1.4-.1-1.4h.1s1.4 2.1 4.7 2.1c4.3 0 7.5-3.4 7.5-8.5-.1-5.2-2.9-8.6-7.3-8.6zm-1 13.6c-2.7 0-4-2.5-4-5 0-3.6 2-5.2 4.1-5.2 2.4 0 4.1 2 4.1 5.1 0 3.3-1.9 5.1-4.2 5.1zm16.1-1.1v-10c0-1.5-.6-2.2-2.1-2.2h-3.9v3.5H44c.4 0 .7.2.7.7v10c0 1.5.6 2.2 2.1 2.2h3.9v-3.4h-1.3c-.5-.1-.7-.3-.7-.8zm-.3-18.6h-3.5v3.7h3.5v-3.7zm21.8 19.3c-.4 0-.7-.3-.7-.7v-6.4c0-4.3-2.1-6.2-5.7-6.2-3.3 0-5.1 2-5.8 3.4h-.1s.1-.4.1-.7v-.5c0-1.2-.7-1.8-2.1-1.8h-3.7v3.5h1.3c.4 0 .7.2.7.7v12.2h4v-7.5c0-.8.1-1.5.3-2.2.6-2 2.2-3.3 4.4-3.3 2 0 2.6 1.3 2.6 3.3v7.5c0 1.5.6 2.2 2.2 2.2h3.9v-3.4h-1.4v-.1z"/></svg>