<svg xmlns="http://www.w3.org/2000/svg" preserveAspectRatio="xMidYMid" viewBox="0 0 39 39"><defs><style>.cls-1{fill:#f79300;fill-rule:evenodd}</style></defs><path d="M36.285 31.682h-4.597v7.319H7.311v-7.319H2.714a2.722 2.722 0 0 1-2.717-2.72V12.421a2.72 2.72 0 0 1 2.717-2.72h4.597V0h24.377v9.701h4.597a2.72 2.72 0 0 1 2.716 2.72v16.541a2.72 2.72 0 0 1-2.716 2.72zm-26.536 4.88H29.25V23.128H9.749v13.434zM29.25 2.402H9.749v7.299H29.25V2.402zm7.314 10.019a.28.28 0 0 0-.279-.28H2.714a.28.28 0 0 0-.279.28v16.541c0 .155.125.28.279.28h4.597v-8.554h24.377v8.554h4.597a.28.28 0 0 0 .279-.28V12.421zm-4.877 4.619h-1.219a1.22 1.22 0 0 1 0-2.44h1.219a1.22 1.22 0 0 1 0 2.44z" class="cls-1"/></svg>