<svg xmlns="http://www.w3.org/2000/svg" preserveAspectRatio="xMidYMid" width="71" height="71" viewBox="0 0 71 71"><defs><style>.cls-1{fill:#fff;fill-rule:evenodd}</style></defs><path d="M67.253 59.892h-7.362c-.524-1.954-.934-3.413-2.286-4.432h8.957v-3.943a6.282 6.282 0 0 0-1.025-.573 4.972 4.972 0 0 1-.409-.198l-14.177-7.729a4.44 4.44 0 0 1-2.297-3.522 4.44 4.44 0 0 1 1.679-3.855c3.829-3.009 5.116-9.64 5.116-13.112v-9.359c0-3.26-5.883-8.737-12.292-8.737a13.811 13.811 0 0 0-8.504 2.901c-1.74-.555-3.753-.557-5.58-.669 3.203-3.743 8.704-6.665 14.084-6.665 8.279 0 16.73 6.972 16.73 13.17v9.359c0 4.497-1.619 12.516-6.811 16.597l14.177 7.73S71 48.396 71 50.6v5.548a3.747 3.747 0 0 1-3.747 3.744zM44.357 24.206v9.36c0 4.496-1.41 12.516-6.602 16.596l13.969 7.73s3.747 1.542 3.747 3.745v5.617a3.748 3.748 0 0 1-3.747 3.745H3.744A3.747 3.747 0 0 1 0 67.254v-5.617c0-2.078 3.744-3.745 3.744-3.745l14.331-7.765c-5.246-4.2-6.977-12.472-6.977-16.561v-9.36c0-6.197 8.461-13.1 16.738-13.1 8.279 0 16.521 6.903 16.521 13.1zm-4.437 0c0-3.26-5.675-8.667-12.084-8.667-6.292 0-12.301 5.483-12.301 8.667v9.36c0 3.522 1.595 10.122 5.316 13.103a4.432 4.432 0 0 1-.661 7.355L5.859 61.788c-.1.057-.204.107-.308.154a7.316 7.316 0 0 0-1.114.66v3.964h46.596v-4.011a6.33 6.33 0 0 0-1.025-.574 5.3 5.3 0 0 1-.409-.196L35.63 54.054a4.438 4.438 0 0 1-2.297-3.521 4.441 4.441 0 0 1 1.679-3.856c3.829-3.008 4.908-9.639 4.908-13.111v-9.36z" class="cls-1"/></svg>