<svg xmlns="http://www.w3.org/2000/svg" xmlns:xlink="http://www.w3.org/1999/xlink" preserveAspectRatio="xMidYMid" width="70" height="68" viewBox="0 0 70 68">
  <defs>
    <style>
      .cls-1 {
        fill: #fff;
        fill-rule: evenodd;
      }
    </style>
  </defs>
  <path d="M69.873,20.356 L59.413,51.179 C59.102,52.044 58.279,52.620 57.358,52.620 L27.682,52.620 C26.703,52.620 25.844,51.971 25.580,51.031 L13.431,6.483 C12.810,4.345 11.902,4.345 11.604,4.345 L2.187,4.345 C0.981,4.345 0.004,3.371 0.004,2.167 C0.004,0.963 0.981,-0.011 2.187,-0.011 L11.604,-0.011 C12.954,-0.011 16.245,0.505 17.630,5.290 L21.162,17.441 L26.802,17.441 L40.655,5.458 C42.372,3.745 45.158,3.746 46.873,5.458 L60.965,17.441 L67.818,17.441 C68.529,17.441 69.194,17.786 69.604,18.367 C70.012,18.945 70.113,19.688 69.873,20.356 ZM43.764,8.560 L33.317,17.441 L54.209,17.441 L43.764,8.560 ZM22.388,21.798 L29.337,48.264 L55.821,48.264 L64.714,21.798 L22.388,21.798 ZM31.705,57.033 C34.741,57.033 37.201,59.488 37.201,62.517 C37.201,65.545 34.741,68.000 31.705,68.000 C28.670,68.000 26.209,65.545 26.209,62.517 C26.209,59.488 28.670,57.033 31.705,57.033 ZM51.491,57.033 C54.526,57.033 56.987,59.488 56.987,62.517 C56.987,65.545 54.526,68.000 51.491,68.000 C48.456,68.000 45.995,65.545 45.995,62.517 C45.995,59.488 48.456,57.033 51.491,57.033 Z" class="cls-1"/>
</svg>
