<svg xmlns="http://www.w3.org/2000/svg" xmlns:xlink="http://www.w3.org/1999/xlink" preserveAspectRatio="xMidYMid" viewBox="0 0 92.09 92.47">
  <defs>
    <style>
      .cls-1 {
        fill: #fff;
        fill-rule: evenodd;
      }
    </style>
  </defs>
  <path d="M86.332,92.470 L5.761,92.470 C2.583,92.470 0.006,89.881 0.006,86.688 L0.006,14.431 C0.006,11.238 2.583,8.650 5.761,8.650 L28.761,8.650 L28.761,2.890 C28.761,1.293 30.048,-0.000 31.639,-0.000 C33.229,-0.000 34.516,1.293 34.516,2.890 L34.516,8.650 L57.536,8.650 L57.536,2.890 C57.536,1.293 58.824,-0.000 60.414,-0.000 C62.004,-0.000 63.291,1.293 63.291,2.890 L63.291,8.650 L86.332,8.650 C89.510,8.650 92.087,11.238 92.087,14.431 L92.087,86.688 C92.087,89.881 89.510,92.470 86.332,92.470 ZM86.332,14.431 L63.291,14.431 L63.291,17.342 C63.291,18.939 62.004,20.233 60.414,20.233 C58.824,20.233 57.536,18.939 57.536,17.342 L57.536,14.431 L34.516,14.431 L34.516,17.342 C34.516,18.939 33.229,20.233 31.639,20.233 C30.048,20.233 28.761,18.939 28.761,17.342 L28.761,14.431 L5.761,14.431 L5.761,86.688 L86.332,86.688 L86.332,14.431 ZM20.148,34.663 L25.903,34.663 C27.493,34.663 28.781,35.957 28.781,37.553 L28.781,43.334 C28.781,44.930 27.493,46.224 25.903,46.224 L20.148,46.224 C18.559,46.224 17.271,44.930 17.271,43.334 L17.271,37.553 C17.271,35.957 18.559,34.663 20.148,34.663 ZM20.148,57.786 L25.903,57.786 C27.493,57.786 28.781,59.080 28.781,60.676 L28.781,66.456 C28.781,68.053 27.493,69.347 25.903,69.347 L20.148,69.347 C18.559,69.347 17.271,68.053 17.271,66.456 L17.271,60.676 C17.271,59.080 18.559,57.786 20.148,57.786 ZM43.169,34.663 L48.924,34.663 C50.513,34.663 51.801,35.957 51.801,37.553 L51.801,43.334 C51.801,44.930 50.513,46.224 48.924,46.224 L43.169,46.224 C41.579,46.224 40.291,44.930 40.291,43.334 L40.291,37.553 C40.291,35.957 41.579,34.663 43.169,34.663 ZM43.169,57.786 L48.924,57.786 C50.513,57.786 51.801,59.080 51.801,60.676 L51.801,66.456 C51.801,68.053 50.513,69.347 48.924,69.347 L43.169,69.347 C41.579,69.347 40.291,68.053 40.291,66.456 L40.291,60.676 C40.291,59.080 41.579,57.786 43.169,57.786 ZM66.189,34.663 L71.944,34.663 C73.533,34.663 74.821,35.957 74.821,37.553 L74.821,43.334 C74.821,44.930 73.533,46.224 71.944,46.224 L66.189,46.224 C64.600,46.224 63.311,44.930 63.311,43.334 L63.311,37.553 C63.311,35.957 64.600,34.663 66.189,34.663 ZM66.189,57.786 L71.944,57.786 C73.533,57.786 74.821,59.080 74.821,60.676 L74.821,66.456 C74.821,68.053 73.533,69.347 71.944,69.347 L66.189,69.347 C64.600,69.347 63.311,68.053 63.311,66.456 L63.311,60.676 C63.311,59.080 64.600,57.786 66.189,57.786 Z" class="cls-1"/>
</svg>
