<?xml version="1.0" encoding="utf-8"?>
<!-- Generator: Adobe Illustrator 19.1.0, SVG Export Plug-In . SVG Version: 6.00 Build 0)  -->
<svg version="1.1" id="Layer_1" xmlns="http://www.w3.org/2000/svg" xmlns:xlink="http://www.w3.org/1999/xlink" x="0px" y="0px"
	 viewBox="0 0 80.2 55.3" style="enable-background:new 0 0 80.2 55.3;" xml:space="preserve">
<style type="text/css">
	.st0{fill:#424242;}
</style>
<g>
	<path class="st0" d="M78.4,20.8L67.1,6.6c-1.2-1.6-3.5-2.8-5.5-2.8H45.7c0,0-0.1,0-0.1,0V2.1c0-1.2-1-2.2-2.2-2.2H2.1
		c-1.2,0-2.2,1-2.2,2.2V43c0,1.2,1,2.2,2.2,2.2h6.7c0,5.5,4.5,10,10,10c5.5,0,10-4.5,10-10h14.6h6.4c0,5.5,4.5,10,10,10
		c5.5,0,10-4.5,10-10h6.6c1.7,0,3.7-0.8,3.7-4.5V25.5C80,23.1,78.5,21.1,78.4,20.8z M18.8,50.8c-3.1,0-5.6-2.5-5.6-5.6
		c0-3.1,2.5-5.6,5.6-5.6c3.1,0,5.6,2.5,5.6,5.6C24.4,48.3,21.9,50.8,18.8,50.8z M41.2,40.7c0,0,0,0.1,0,0.2H27.7
		c-1.6-3.3-5-5.6-9-5.6c-3.9,0-7.3,2.3-9,5.6H4.3V4.3h36.9V40.7z M59.8,50.8c-3.1,0-5.6-2.5-5.6-5.6c0-3.1,2.5-5.6,5.6-5.6
		c3.1,0,5.6,2.5,5.6,5.6C65.4,48.3,62.9,50.8,59.8,50.8z M75.6,40.7c0,0,0,0.1,0,0.1h-6.9c-1.6-3.3-5-5.6-9-5.6
		c-3.9,0-7.3,2.3-9,5.6h-5.3v-0.1V8.3c0-0.1,0.1-0.1,0.1-0.1h15.9c0.6,0,1.6,0.5,2,1.1l11.3,14.4c0.2,0.3,0.7,1.2,0.7,1.9V40.7z"/>
	<path class="st0" d="M61.8,13.6c-0.4-0.5-0.9-0.7-1.5-0.7h-7.6c-1.1,0-1.9,0.9-1.9,1.9v8.5c0,1.1,0.9,1.9,1.9,1.9h14.2
		c0.7,0,1.4-0.4,1.7-1.1c0.3-0.7,0.2-1.4-0.2-2L61.8,13.6z M54.6,21.3v-4.6h4.7l3.6,4.6H54.6z"/>
	<rect x="10.1" y="9.9" class="st0" width="23.6" height="4.4"/>
	<rect x="15" y="18.5" class="st0" width="18.7" height="4.4"/>
	<rect x="20.4" y="27" class="st0" width="13.3" height="4.4"/>
</g>
</svg>
