<svg xmlns="http://www.w3.org/2000/svg" xmlns:xlink="http://www.w3.org/1999/xlink" preserveAspectRatio="xMidYMid" viewBox="0 0 91.97 89.41">
  <defs>
    <style>
      .cls-1 {
        fill: #fff;
        fill-rule: evenodd;
      }
    </style>
  </defs>
  <path d="M90.946,21.180 L76.080,33.724 L88.751,43.764 C89.476,44.336 89.881,45.223 89.844,46.148 C89.808,47.074 89.332,47.923 88.565,48.438 L77.411,55.906 C77.445,56.083 77.466,56.264 77.466,56.451 L77.466,70.047 C77.466,71.049 76.948,71.981 76.097,72.509 L47.482,88.987 C47.019,89.272 46.496,89.416 45.973,89.416 C45.450,89.416 44.928,89.275 44.467,88.989 L15.514,72.511 C14.663,71.984 14.143,71.052 14.143,70.047 L14.143,58.454 C14.143,57.606 14.513,56.852 15.091,56.323 L3.313,48.438 C2.546,47.923 2.071,47.071 2.034,46.145 C1.998,45.220 2.405,44.331 3.133,43.761 L15.860,33.717 L1.003,21.180 C0.298,20.584 -0.081,19.687 -0.014,18.763 C0.051,17.840 0.551,17.006 1.332,16.514 L26.977,0.439 C28.014,-0.215 29.357,-0.128 30.310,0.645 L45.973,13.375 L61.639,0.645 C62.594,-0.131 63.930,-0.213 64.972,0.439 L90.617,16.514 C91.398,17.006 91.898,17.840 91.963,18.763 C92.030,19.687 91.651,20.584 90.946,21.180 ZM82.074,45.835 L71.331,37.325 L51.009,50.117 L62.468,58.963 L82.074,45.835 ZM71.711,59.723 L63.946,64.921 C63.463,65.246 62.906,65.407 62.350,65.407 C61.732,65.407 61.111,65.206 60.597,64.808 L48.668,55.598 L48.668,81.592 L71.711,68.432 L71.711,59.723 ZM19.898,68.430 L42.913,81.409 L42.913,55.865 L31.276,64.812 C30.298,65.559 28.952,65.605 27.932,64.921 L19.898,59.542 L19.898,68.430 ZM9.810,45.841 L29.413,58.966 L40.929,50.111 L20.609,37.322 L9.810,45.841 ZM28.284,6.435 L7.739,19.314 L20.643,30.204 L41.086,16.839 L28.284,6.435 ZM25.769,33.749 L45.973,46.465 L66.178,33.749 L45.973,20.542 L25.769,33.749 ZM63.665,6.435 L50.860,16.839 L71.303,30.204 L84.210,19.314 L63.665,6.435 Z" class="cls-1"/>
</svg>
