<svg xmlns="http://www.w3.org/2000/svg" xmlns:xlink="http://www.w3.org/1999/xlink" preserveAspectRatio="xMidYMid" width="56.063" height="37" viewBox="0 0 56.063 37">
  <defs>
    <style>
      .cls-1 {
        fill: #010101;
        fill-rule: evenodd;
      }
    </style>
  </defs>
  <path d="M56.031,31.112 C56.031,33.899 54.556,36.998 51.656,36.998 L6.156,36.998 C3.257,36.998 0.031,33.899 0.031,31.112 L0.031,4.203 C0.031,4.067 0.072,3.951 0.087,3.822 C-0.007,3.336 0.095,2.820 0.458,2.418 C0.523,2.346 0.609,2.310 0.682,2.252 C1.766,0.761 4.041,-0.002 6.156,-0.002 L51.656,-0.002 C54.052,-0.002 55.459,0.981 55.881,2.890 C55.998,3.164 56.038,3.452 55.998,3.740 C56.008,3.895 56.031,4.038 56.031,4.203 L56.031,31.112 ZM6.156,33.634 L51.656,33.634 C52.621,33.634 52.531,32.040 52.531,31.112 L52.531,7.018 L29.177,24.972 C28.848,25.247 28.439,25.383 28.031,25.383 C27.622,25.383 27.214,25.247 26.885,24.972 L3.531,7.017 L3.531,31.112 C3.531,32.040 5.191,33.634 6.156,33.634 ZM50.781,3.362 L6.156,3.362 C5.672,3.362 5.014,3.341 4.477,3.436 L28.031,21.476 L51.680,3.362 C51.671,3.362 51.665,3.362 51.656,3.362 L50.781,3.362 Z" class="cls-1"/>
</svg>
