<svg xmlns="http://www.w3.org/2000/svg" xmlns:xlink="http://www.w3.org/1999/xlink" preserveAspectRatio="xMidYMid" width="47" height="43" viewBox="0 0 47 43">
  <defs>
    <style>
      .cls-1 {
        fill: #f79300;
        fill-rule: evenodd;
      }
    </style>
  </defs>
  <path d="M13.189,2.999 C14.626,2.999 17.224,3.697 21.438,7.911 L23.528,10.000 L25.586,7.878 C28.512,4.860 31.625,2.984 33.711,2.984 C36.524,2.984 38.741,3.961 40.903,6.152 C42.940,8.216 44.063,10.959 44.063,13.878 C44.064,16.798 42.942,19.544 40.883,21.630 C40.716,21.803 31.860,31.504 24.440,39.634 C24.091,39.972 23.690,40.022 23.479,40.022 C23.270,40.022 22.874,39.973 22.526,39.646 C20.719,37.604 7.614,22.809 6.090,21.263 C4.051,19.197 2.928,16.451 2.928,13.531 C2.929,10.612 4.051,7.869 6.091,5.803 C8.075,3.791 10.396,2.999 13.189,2.999 M13.189,0.022 C9.683,0.022 6.592,1.087 4.019,3.697 C-1.344,9.128 -1.344,17.936 4.019,23.370 C5.550,24.924 20.412,41.710 20.412,41.710 C21.259,42.570 22.370,42.999 23.479,42.999 C24.588,42.999 25.697,42.570 26.544,41.710 C26.544,41.710 42.800,23.896 42.973,23.717 C48.336,18.282 48.336,9.475 42.973,4.044 C40.312,1.346 37.337,0.008 33.711,0.008 C30.247,0.008 26.382,2.813 23.496,5.789 C20.518,2.813 16.773,0.022 13.189,0.022 L13.189,0.022 Z" class="cls-1"/>
</svg>
