<svg xmlns="http://www.w3.org/2000/svg" xmlns:xlink="http://www.w3.org/1999/xlink" preserveAspectRatio="xMidYMid" width="78.656" height="78.844" viewBox="0 0 78.656 78.844">
  <defs>
    <style>
      .cls-1 {
        fill: #fff;
        fill-rule: evenodd;
      }
    </style>
  </defs>
  <path d="M39.320,78.843 C17.596,78.843 -0.015,61.195 -0.015,39.423 C-0.015,17.653 17.596,0.005 39.320,0.005 C61.046,0.005 78.656,17.653 78.656,39.423 C78.656,61.195 61.046,78.843 39.320,78.843 ZM39.320,4.932 C20.342,4.932 4.902,20.404 4.902,39.423 C4.902,58.442 20.342,73.993 39.320,73.993 C58.299,73.993 73.739,58.442 73.739,39.423 C73.739,20.404 58.299,4.932 39.320,4.932 ZM44.237,61.597 L34.403,61.597 C33.046,61.597 31.945,60.494 31.945,59.133 C31.945,57.772 33.046,56.669 34.403,56.669 L36.862,56.669 L36.862,36.960 L34.403,36.960 C33.046,36.960 31.945,35.857 31.945,34.497 C31.945,33.136 33.046,32.033 34.403,32.033 L39.320,32.033 C40.678,32.033 41.779,33.136 41.779,34.497 C41.779,34.523 41.772,34.548 41.771,34.574 C41.772,34.600 41.779,34.624 41.779,34.650 L41.779,56.669 L44.237,56.669 C45.595,56.669 46.696,57.772 46.696,59.133 C46.696,60.494 45.595,61.597 44.237,61.597 ZM39.320,27.105 C36.605,27.105 34.403,24.899 34.403,22.178 C34.403,19.456 36.605,17.251 39.320,17.251 C42.036,17.251 44.237,19.456 44.237,22.178 C44.237,24.899 42.036,27.105 39.320,27.105 Z" class="cls-1"/>
</svg>
