<svg xmlns="http://www.w3.org/2000/svg" xmlns:xlink="http://www.w3.org/1999/xlink" preserveAspectRatio="xMidYMid" viewBox="0 0 42.19 26.4">
  <defs>
    <style>
      .cls-1 {
        fill: #000;
        fill-rule: evenodd;
      }
    </style>
  </defs>
  <path d="M40.865,14.519 L13.191,14.519 C12.463,14.519 11.873,13.928 11.873,13.198 C11.873,12.469 12.463,11.877 13.191,11.877 L40.865,11.877 C41.592,11.877 42.182,12.469 42.182,13.198 C42.182,13.928 41.592,14.519 40.865,14.519 ZM40.865,3.952 L13.191,3.952 C12.463,3.952 11.873,3.361 11.873,2.631 C11.873,1.902 12.463,1.311 13.191,1.311 L40.865,1.311 C41.592,1.311 42.182,1.902 42.182,2.631 C42.182,3.361 41.592,3.952 40.865,3.952 ZM3.966,26.405 L1.331,26.405 C0.603,26.405 0.013,25.814 0.013,25.085 L0.013,22.443 C0.013,21.714 0.603,21.122 1.331,21.122 L3.966,21.122 C4.694,21.122 5.284,21.714 5.284,22.443 L5.284,25.085 C5.284,25.814 4.694,26.405 3.966,26.405 ZM3.966,15.840 L1.331,15.840 C0.603,15.840 0.013,15.248 0.013,14.519 L0.013,11.877 C0.013,11.148 0.603,10.557 1.331,10.557 L3.966,10.557 C4.694,10.557 5.284,11.148 5.284,11.877 L5.284,14.519 C5.284,15.248 4.694,15.840 3.966,15.840 ZM3.966,5.273 L1.331,5.273 C0.603,5.273 0.013,4.682 0.013,3.952 L0.013,1.311 C0.013,0.581 0.603,-0.010 1.331,-0.010 L3.966,-0.010 C4.694,-0.010 5.284,0.581 5.284,1.311 L5.284,3.952 C5.284,4.682 4.694,5.273 3.966,5.273 ZM13.191,22.443 L40.865,22.443 C41.592,22.443 42.182,23.034 42.182,23.764 C42.182,24.493 41.592,25.085 40.865,25.085 L13.191,25.085 C12.463,25.085 11.873,24.493 11.873,23.764 C11.873,23.034 12.463,22.443 13.191,22.443 Z" class="cls-1"/>
</svg>
