<svg xmlns="http://www.w3.org/2000/svg" xmlns:xlink="http://www.w3.org/1999/xlink" preserveAspectRatio="xMidYMid" width="38" height="47" viewBox="0 0 38 47">
  <defs>
    <style>
      .cls-1 {
        fill: #a9a5a2;
        fill-rule: evenodd;
      }
    </style>
  </defs>
  <path d="M32.153,47.000 L5.846,47.000 C2.621,47.000 -0.001,44.365 -0.001,41.125 L-0.001,23.500 C-0.001,20.260 2.621,17.625 5.846,17.625 L7.307,17.625 L7.307,12.019 C7.307,5.391 12.024,-0.000 18.945,-0.000 C25.839,-0.000 30.692,5.279 30.692,12.019 L30.692,17.625 L32.153,17.625 C35.377,17.625 37.999,20.260 37.999,23.500 L37.999,41.125 C37.999,44.365 35.377,47.000 32.153,47.000 ZM27.769,12.019 C27.769,6.926 24.200,2.937 18.945,2.937 C13.636,2.937 10.230,7.012 10.230,12.019 L10.230,17.625 L27.769,17.625 L27.769,12.019 ZM35.076,23.500 C35.076,21.880 33.765,20.562 32.153,20.562 L5.846,20.562 C4.234,20.562 2.922,21.880 2.922,23.500 L2.922,41.125 C2.922,42.744 4.234,44.062 5.846,44.062 L32.153,44.062 C33.765,44.062 35.076,42.744 35.076,41.125 L35.076,23.500 ZM20.461,31.905 L20.461,36.718 C20.461,37.530 19.807,38.187 18.999,38.187 C18.192,38.187 17.538,37.530 17.538,36.718 L17.538,31.905 C16.668,31.396 16.076,30.459 16.076,29.375 C16.076,27.752 17.385,26.437 18.999,26.437 C20.614,26.437 21.922,27.752 21.922,29.375 C21.922,30.459 21.331,31.396 20.461,31.905 Z" class="cls-1"/>
</svg>
