<svg xmlns="http://www.w3.org/2000/svg" xmlns:xlink="http://www.w3.org/1999/xlink" preserveAspectRatio="xMidYMid" viewBox="0 0 44.03 44.34">
  <defs>
    <style>
      .cls-1 {
        fill: #000;
        fill-rule: evenodd;
      }
    </style>
  </defs>
  <path d="M41.950,10.639 C40.594,12.050 23.848,28.663 22.980,29.526 C22.845,29.659 22.680,29.759 22.499,29.813 C21.124,30.226 12.768,32.949 12.684,32.978 C12.567,33.014 12.449,33.032 12.331,33.032 C12.031,33.032 11.738,32.914 11.519,32.693 C11.213,32.388 11.099,31.932 11.227,31.514 C11.251,31.433 13.725,23.274 14.218,21.436 C14.271,21.237 14.375,21.058 14.518,20.911 C14.518,20.911 32.737,2.579 33.380,1.939 C33.834,1.484 35.500,-0.004 37.786,-0.004 C39.247,-0.004 40.616,0.603 41.856,1.801 C43.263,3.162 43.995,4.620 44.020,6.134 C44.048,7.668 43.351,9.183 41.950,10.639 ZM39.954,3.801 C39.233,3.105 38.523,2.766 37.786,2.766 C36.489,2.766 35.435,3.786 35.320,3.902 C34.726,4.491 19.118,20.197 16.757,22.572 C16.362,23.975 15.477,26.943 14.738,29.399 C17.031,28.654 20.063,27.671 21.330,27.277 L22.175,26.437 C33.222,15.471 39.211,9.508 39.976,8.713 C40.849,7.803 41.285,6.952 41.272,6.183 C41.260,5.435 40.816,4.634 39.954,3.801 ZM2.735,6.945 L2.735,41.569 L34.345,41.569 L34.345,23.931 L37.094,21.286 L37.094,41.569 C37.094,43.098 35.863,44.339 34.345,44.339 L2.735,44.339 C1.217,44.339 -0.014,43.098 -0.014,41.569 L-0.014,6.945 C-0.014,5.416 1.217,4.176 2.735,4.176 L24.752,4.176 L24.824,4.248 L22.045,6.945 L2.735,6.945 Z" class="cls-1"/>
</svg>
