<svg xmlns="http://www.w3.org/2000/svg" xmlns:xlink="http://www.w3.org/1999/xlink" preserveAspectRatio="xMidYMid"  viewBox="0 0 42.16 42.47">
  <defs>
    <style>
      .cls-1 {
        fill: #f79300;
        fill-rule: evenodd;
      }
    </style>
  </defs>
  <path d="M39.869,37.525 L22.465,42.271 C21.901,42.426 21.288,42.459 20.872,42.459 C20.267,42.459 19.683,42.390 19.229,42.262 L2.273,37.532 C0.999,37.174 -0.003,35.904 -0.003,34.574 L-0.003,2.346 C-0.003,0.778 1.463,-0.321 2.976,0.098 L19.933,4.829 C20.374,4.954 21.334,4.955 21.776,4.836 L39.180,0.089 C40.687,-0.323 42.153,0.779 42.153,2.346 L42.153,34.574 C42.153,35.909 41.147,37.177 39.869,37.525 ZM2.630,2.765 L2.630,34.574 C2.630,34.708 2.808,34.942 2.935,34.977 L19.759,39.659 L19.759,7.485 C19.575,7.456 19.386,7.428 19.229,7.384 L2.630,2.765 ZM39.520,2.749 L22.465,7.394 C22.441,7.400 22.416,7.400 22.391,7.407 L22.391,39.547 L39.180,34.968 C39.306,34.933 39.520,34.706 39.520,34.574 L39.520,2.749 ZM35.994,28.441 L26.781,31.052 C26.662,31.085 26.542,31.101 26.423,31.101 C25.849,31.101 25.320,30.719 25.157,30.134 C24.960,29.430 25.368,28.698 26.068,28.499 L35.282,25.888 C35.977,25.693 36.708,26.102 36.905,26.806 C37.102,27.510 36.694,28.241 35.994,28.441 ZM35.994,20.489 L26.781,23.099 C26.662,23.133 26.542,23.148 26.423,23.148 C25.849,23.148 25.320,22.767 25.157,22.182 C24.960,21.478 25.368,20.746 26.068,20.547 L35.282,17.936 C35.977,17.741 36.708,18.150 36.905,18.854 C37.102,19.558 36.694,20.289 35.994,20.489 ZM35.994,12.536 L26.781,15.147 C26.662,15.181 26.542,15.196 26.423,15.196 C25.849,15.196 25.320,14.815 25.157,14.229 C24.960,13.526 25.368,12.794 26.068,12.595 L35.282,9.984 C35.977,9.789 36.708,10.198 36.905,10.902 C37.102,11.606 36.694,12.337 35.994,12.536 ZM15.891,31.101 C15.773,31.101 15.652,31.085 15.534,31.052 L6.321,28.441 C5.620,28.241 5.212,27.510 5.409,26.806 C5.606,26.102 6.337,25.693 7.033,25.888 L16.246,28.499 C16.947,28.698 17.354,29.430 17.158,30.134 C16.994,30.719 16.466,31.101 15.891,31.101 ZM15.891,23.148 C15.773,23.148 15.652,23.133 15.534,23.099 L6.321,20.489 C5.620,20.289 5.212,19.558 5.409,18.854 C5.606,18.150 6.337,17.741 7.033,17.936 L16.246,20.547 C16.947,20.746 17.354,21.478 17.158,22.182 C16.994,22.767 16.466,23.148 15.891,23.148 ZM15.891,15.196 C15.773,15.196 15.652,15.181 15.534,15.147 L6.321,12.536 C5.620,12.337 5.212,11.606 5.409,10.902 C5.606,10.198 6.337,9.789 7.033,9.984 L16.246,12.595 C16.947,12.794 17.354,13.526 17.158,14.229 C16.994,14.815 16.466,15.196 15.891,15.196 Z" class="cls-1"/>
</svg>
