<?xml version="1.0" encoding="utf-8"?>
<!-- Generator: Adobe Illustrator 19.1.0, SVG Export Plug-In . SVG Version: 6.00 Build 0)  -->
<svg version="1.1" id="Layer_1" xmlns="http://www.w3.org/2000/svg" xmlns:xlink="http://www.w3.org/1999/xlink" x="0px" y="0px"
	 viewBox="0 0 94 62" style="enable-background:new 0 0 94 62;" xml:space="preserve">
<style type="text/css">
	.st0{fill:#010101;}
</style>
<path class="st0" d="M82,62H12C5.4,62,0,56.6,0,50V12C0,5.4,5.4,0,12,0h70c6.6,0,12,5.4,12,12v38C94,56.6,88.6,62,82,62z M12,4
	c-4.4,0-8,3.6-8,8v38c0,4.4,3.6,8,8,8h70c4.4,0,8-3.6,8-8V12c0-4.4-3.6-8-8-8H12z"/>
<path class="st0" d="M33.6,23c-3.8,0-5.2,2.6-5.2,2.6h-0.1V25c0-0.9-0.5-1.6-2-1.6h-3.6v3.5H24c0.4,0,0.7,0.2,0.7,0.7v18.6h4v-6.8
	c0-0.8-0.1-1.4-0.1-1.4h0.1c0,0,1.4,2.1,4.7,2.1c4.3,0,7.5-3.4,7.5-8.5C40.8,26.4,38,23,33.6,23L33.6,23z M32.6,36.6
	c-2.7,0-4-2.5-4-5c0-3.6,2-5.2,4.1-5.2c2.4,0,4.1,2,4.1,5.1C36.8,34.8,34.9,36.6,32.6,36.6z M48.7,35.5v-10c0-1.5-0.6-2.2-2.1-2.2
	h-3.9v3.5H44c0.4,0,0.7,0.2,0.7,0.7v10c0,1.5,0.6,2.2,2.1,2.2h3.9v-3.4h-1.3C48.9,36.2,48.7,36,48.7,35.5L48.7,35.5z M48.4,16.9
	h-3.5v3.7h3.5V16.9z M70.2,36.2c-0.4,0-0.7-0.3-0.7-0.7v-6.4c0-4.3-2.1-6.2-5.7-6.2c-3.3,0-5.1,2-5.8,3.4h-0.1c0,0,0.1-0.4,0.1-0.7
	v-0.5c0-1.2-0.7-1.8-2.1-1.8h-3.7v3.5h1.3c0.4,0,0.7,0.2,0.7,0.7v12.2h4v-7.5c0-0.8,0.1-1.5,0.3-2.2c0.6-2,2.2-3.3,4.4-3.3
	c2,0,2.6,1.3,2.6,3.3v7.5c0,1.5,0.6,2.2,2.2,2.2h3.9v-3.4h-1.4L70.2,36.2z"/>
</svg>
