<svg xmlns="http://www.w3.org/2000/svg" xmlns:xlink="http://www.w3.org/1999/xlink" preserveAspectRatio="xMidYMid"  viewBox="0 0 39 39">
  <defs>
    <style>
      .cls-1 {
        fill: #f79300;
        fill-rule: evenodd;
      }
    </style>
  </defs>
  <path d="M36.285,31.682 L31.688,31.682 L31.688,39.001 L7.311,39.001 L7.311,31.682 L2.714,31.682 C1.216,31.682 -0.003,30.462 -0.003,28.962 L-0.003,12.421 C-0.003,10.920 1.216,9.701 2.714,9.701 L7.311,9.701 L7.311,0.000 L31.688,0.000 L31.688,9.701 L36.285,9.701 C37.783,9.701 39.001,10.920 39.001,12.421 L39.001,28.962 C39.001,30.462 37.783,31.682 36.285,31.682 ZM9.749,36.562 L29.250,36.562 L29.250,23.128 L9.749,23.128 L9.749,36.562 ZM29.250,2.402 L9.749,2.402 L9.749,9.701 L29.250,9.701 L29.250,2.402 ZM36.564,12.421 C36.564,12.266 36.439,12.141 36.285,12.141 L2.714,12.141 C2.560,12.141 2.435,12.266 2.435,12.421 L2.435,28.962 C2.435,29.117 2.560,29.242 2.714,29.242 L7.311,29.242 L7.311,20.688 L31.688,20.688 L31.688,29.242 L36.285,29.242 C36.439,29.242 36.564,29.117 36.564,28.962 L36.564,12.421 ZM31.687,17.040 L30.468,17.040 C29.795,17.040 29.249,16.494 29.249,15.820 C29.249,15.146 29.795,14.600 30.468,14.600 L31.687,14.600 C32.360,14.600 32.906,15.146 32.906,15.820 C32.906,16.494 32.360,17.040 31.687,17.040 Z" class="cls-1"/>
</svg>
