<svg xmlns="http://www.w3.org/2000/svg" xmlns:xlink="http://www.w3.org/1999/xlink" preserveAspectRatio="xMidYMid" width="71" height="71" viewBox="0 0 71 71">
  <defs>
    <style>
      .cls-1 {
        fill: #fff;
        fill-rule: evenodd;
      }
    </style>
  </defs>
  <path d="M67.253,59.892 L59.891,59.892 C59.367,57.938 58.957,56.479 57.605,55.460 L66.562,55.460 L66.562,51.517 C66.268,51.314 65.865,51.082 65.537,50.944 C65.407,50.888 65.251,50.814 65.128,50.746 L50.951,43.017 C49.642,42.303 48.780,40.979 48.654,39.495 C48.531,38.011 49.161,36.562 50.333,35.640 C54.162,32.631 55.449,26.000 55.449,22.528 L55.449,13.169 C55.449,9.909 49.566,4.432 43.157,4.432 C39.948,4.432 36.990,5.515 34.653,7.333 C32.913,6.778 30.900,6.776 29.073,6.664 C32.276,2.921 37.777,-0.001 43.157,-0.001 C51.436,-0.001 59.887,6.971 59.887,13.169 L59.887,22.528 C59.887,27.025 58.268,35.044 53.076,39.125 L67.253,46.855 C67.253,46.855 71.000,48.396 71.000,50.600 L71.000,56.148 C71.000,58.215 69.321,59.892 67.253,59.892 ZM44.357,24.206 L44.357,33.566 C44.357,38.062 42.947,46.082 37.755,50.162 L51.724,57.892 C51.724,57.892 55.471,59.434 55.471,61.637 L55.471,67.254 C55.471,69.321 53.791,70.999 51.724,70.999 L3.744,70.999 C1.679,70.999 -0.000,69.321 -0.000,67.254 L-0.000,61.637 C-0.000,59.559 3.744,57.892 3.744,57.892 L18.075,50.127 C12.829,45.927 11.098,37.655 11.098,33.566 L11.098,24.206 C11.098,18.009 19.559,11.106 27.836,11.106 C36.115,11.106 44.357,18.009 44.357,24.206 ZM39.920,24.206 C39.920,20.946 34.245,15.539 27.836,15.539 C21.544,15.539 15.535,21.022 15.535,24.206 L15.535,33.566 C15.535,37.088 17.130,43.688 20.851,46.669 C22.010,47.597 22.627,49.046 22.495,50.524 C22.363,52.002 21.496,53.317 20.190,54.024 L5.859,61.788 C5.759,61.845 5.655,61.895 5.551,61.942 C5.200,62.103 4.756,62.371 4.437,62.602 L4.437,66.566 L51.033,66.566 L51.033,62.555 C50.738,62.351 50.336,62.120 50.008,61.981 C49.878,61.925 49.722,61.852 49.599,61.785 L35.630,54.054 C34.321,53.340 33.459,52.017 33.333,50.533 C33.210,49.048 33.840,47.600 35.012,46.677 C38.841,43.669 39.920,37.038 39.920,33.566 L39.920,24.206 Z" class="cls-1"/>
</svg>
